<svg width="21" height="21" viewBox="0 0 21 21" fill="none" xmlns="http://www.w3.org/2000/svg">
<path d="M4.03291 19.8851C4.56619 20.2722 5.18533 20.459 5.79995 20.459C6.72493 20.459 7.63778 20.0358 8.22527 19.2404C8.22695 19.2387 8.22855 19.237 8.23006 19.2351C8.23147 19.2332 8.23289 19.2314 8.23422 19.2295L8.23626 19.2266C8.23767 19.2247 8.239 19.2227 8.24033 19.2208L10.3192 16.3635L12.3981 19.2208C12.4001 19.2239 12.4023 19.2263 12.4043 19.229L12.4071 19.2329C13.3863 20.566 15.2679 20.8596 16.6071 19.8866C17.9478 18.9136 18.2476 17.0323 17.2804 15.6888L17.2783 15.6854C17.2765 15.6826 17.2751 15.6804 17.2729 15.6782L15.1985 12.8193L18.5594 11.7259C20.1381 11.2122 21.0058 9.5087 20.4921 7.93011C19.9785 6.3516 18.2762 5.48401 16.6959 5.99614L13.3351 7.08516L13.3336 3.55002C13.332 1.89014 11.9808 0.539062 10.3207 0.539062C8.66066 0.539062 7.3094 1.89014 7.3079 3.55153L7.30489 7.08365L3.94404 5.99463L3.93946 5.99388C3.93735 5.99331 3.93348 5.99162 3.93348 5.99162C2.35626 5.48553 0.660017 6.3531 0.147834 7.92869C-0.364357 9.50419 0.497333 11.2017 2.06853 11.7198L2.07253 11.7213L2.07807 11.7235L2.08059 11.7243L5.43991 12.8178L3.36555 15.6767L3.36256 15.6812L3.35955 15.6858C2.3909 17.0293 2.69219 18.9121 4.03291 19.8851Z" fill="url(#paint0_linear_193_52)"/>
<defs>
<linearGradient id="paint0_linear_193_52" x1="2.41386" y1="9.06931" x2="20.1476" y2="14.3117" gradientUnits="userSpaceOnUse">
<stop stop-color="#4581C6"/>
<stop offset="0.795712" stop-color="#87DBF9"/>
<stop offset="1" stop-color="#8BFAF2"/>
</linearGradient>
</defs>
</svg>
